<mxfile host="www.draw.io" modified="2019-11-27T17:20:07.850Z" agent="Mozilla/5.0 (Windows NT 10.0; Win64; x64) AppleWebKit/537.36 (KHTML, like Gecko) Chrome/72.0.3626.96 Safari/537.36" etag="NaiLMJOglxwnx4YU_kRE" version="12.3.2" type="github" pages="1">
  <diagram id="eWKPQBnvOwOOISXoSHfE" name="Page-1">
    <mxGraphModel dx="1408" dy="725" grid="1" gridSize="10" guides="1" tooltips="1" connect="1" arrows="1" fold="1" page="1" pageScale="1" pageWidth="827" pageHeight="1169" math="0" shadow="0">
      <root>
        <mxCell id="0"/>
        <mxCell id="1" parent="0"/>
        <mxCell id="tpXWtxzMzk-mN9jpiB8L-2" value="&lt;h1&gt;选择器(Selector)&lt;/h1&gt;&lt;div&gt;&lt;span style=&quot;font-size: 10.56pt&quot;&gt;&lt;font face=&quot;宋体&quot;&gt;选择器类管理着一个被注册的通道集合的信息和它们的就绪状态。通道是和选择器一起被注册&lt;/font&gt;&lt;/span&gt;&lt;span style=&quot;font-size: 10.56pt&quot;&gt;&lt;font face=&quot;宋体&quot;&gt;的，并且使用选择器来更新通道的就绪状态。当这么做的时候，可以选择将被激发的线程挂起，直&lt;/font&gt;&lt;/span&gt;&lt;span style=&quot;font-size: 10.56pt&quot;&gt;到有就绪的的通道。&lt;/span&gt;&lt;/div&gt;" style="text;html=1;strokeColor=#666666;fillColor=#f5f5f5;spacing=5;spacingTop=-20;whiteSpace=wrap;overflow=hidden;rounded=0;fontSize=17;fontColor=#333333;" vertex="1" parent="1">
          <mxGeometry x="10" y="430" width="710" height="130" as="geometry"/>
        </mxCell>
        <mxCell id="tpXWtxzMzk-mN9jpiB8L-3" value="&lt;h1&gt;&lt;font face=&quot;黑体&quot;&gt;可选择通道(SelectableChannel)&lt;/font&gt;&lt;/h1&gt;&lt;div&gt;&lt;span style=&quot;font-size: 10.56pt&quot;&gt;&lt;font face=&quot;宋体&quot;&gt;这个抽象类提供了实现通道的可选择性所需要的公共方法。它是所有支持就绪检查的通道类的&lt;/font&gt;&lt;/span&gt;&lt;span style=&quot;font-size: 10.56pt&quot;&gt;&lt;font face=&quot;宋体&quot;&gt;父类。&lt;/font&gt;&lt;/span&gt;&lt;span style=&quot;font-family: &amp;#34;couriernewpsmt&amp;#34; ; font-size: 10.56pt&quot;&gt;&lt;font face=&quot;CourierNewPSMT&quot;&gt;FileChannel&lt;/font&gt;&lt;/span&gt;&lt;span style=&quot;font-size: 10.56pt&quot;&gt;&lt;font face=&quot;宋体&quot;&gt;对象不是可选择的，因为它们没有继承&lt;/font&gt;&lt;/span&gt;&lt;span style=&quot;font-family: &amp;#34;couriernewpsmt&amp;#34; ; font-size: 10.56pt&quot;&gt;&lt;font face=&quot;CourierNewPSMT&quot;&gt;SelectableChannel&lt;/font&gt;&lt;/span&gt;&lt;span style=&quot;font-family: &amp;#34;timesnewromanpsmt&amp;#34; ; font-size: 10.56pt&quot;&gt;&lt;font face=&quot;TimesNewRomanPSMT&quot;&gt;(&lt;/font&gt;&lt;/span&gt;&lt;span style=&quot;font-size: 10.56pt&quot;&gt;&lt;font face=&quot;宋体&quot;&gt;见图&lt;/font&gt;&lt;/span&gt;&lt;span style=&quot;font-family: &amp;#34;timesnewromanpsmt&amp;#34; ; font-size: 10.56pt&quot;&gt;&lt;font face=&quot;TimesNewRomanPSMT&quot;&gt;4-2)&lt;/font&gt;&lt;/span&gt;&lt;span style=&quot;font-size: 10.56pt&quot;&gt;&lt;font face=&quot;宋体&quot;&gt;。&lt;/font&gt;&lt;/span&gt;&lt;span style=&quot;font-size: 10.56pt&quot;&gt;&lt;font face=&quot;宋体&quot;&gt;所有&lt;/font&gt;&lt;/span&gt;&lt;span style=&quot;font-family: &amp;#34;timesnewromanpsmt&amp;#34; ; font-size: 10.56pt&quot;&gt;&lt;font face=&quot;TimesNewRomanPSMT&quot;&gt;socket&lt;/font&gt;&lt;/span&gt;&lt;span style=&quot;font-size: 10.56pt&quot;&gt;&lt;font face=&quot;宋体&quot;&gt;通道都是可选择的，包括从管道&lt;/font&gt;&lt;/span&gt;&lt;span style=&quot;font-family: &amp;#34;timesnewromanpsmt&amp;#34; ; font-size: 10.56pt&quot;&gt;&lt;font face=&quot;TimesNewRomanPSMT&quot;&gt;(Pipe)&lt;/font&gt;&lt;/span&gt;&lt;span style=&quot;font-size: 10.56pt&quot;&gt;&lt;font face=&quot;宋体&quot;&gt;对&lt;/font&gt;&lt;/span&gt;&lt;span style=&quot;font-size: 10.56pt&quot;&gt;&lt;font face=&quot;宋体&quot;&gt;象的中获得的通道。&lt;/font&gt;&lt;/span&gt;&lt;span style=&quot;font-family: &amp;#34;couriernewpsmt&amp;#34; ; font-size: 10.56pt&quot;&gt;&lt;font face=&quot;CourierNewPSMT&quot;&gt;SelectableChannel&lt;/font&gt;&lt;/span&gt;&lt;span style=&quot;font-size: 10.56pt&quot;&gt;&lt;font face=&quot;宋体&quot;&gt;可以被注册到&lt;/font&gt;&lt;/span&gt;&lt;span style=&quot;font-family: &amp;#34;timesnewromanpsmt&amp;#34; ; font-size: 10.56pt&quot;&gt;&lt;font face=&quot;TimesNewRomanPSMT&quot;&gt;Selector&lt;/font&gt;&lt;/span&gt;&lt;span style=&quot;font-size: 10.56pt&quot;&gt;&lt;font face=&quot;宋体&quot;&gt;对象上，同时可以指定对&lt;/font&gt;&lt;/span&gt;&lt;span style=&quot;font-size: 10.56pt&quot;&gt;&lt;font face=&quot;宋体&quot;&gt;那个选择器而言，那种操作是感兴趣的。一个通道可以被注册到多个选择器上，但对每个选择器而&lt;/font&gt;&lt;/span&gt;&lt;span style=&quot;font-size: 10.56pt&quot;&gt;言只能被注册一次。&lt;/span&gt;&lt;/div&gt;" style="text;html=1;strokeColor=#666666;fillColor=#f5f5f5;spacing=5;spacingTop=-20;whiteSpace=wrap;overflow=hidden;rounded=0;fontSize=17;fontColor=#333333;" vertex="1" parent="1">
          <mxGeometry x="10" y="600" width="710" height="170" as="geometry"/>
        </mxCell>
        <mxCell id="tpXWtxzMzk-mN9jpiB8L-4" value="&lt;h1&gt;&lt;font face=&quot;黑体&quot;&gt;选择键(SelectionKey)&lt;/font&gt;&lt;/h1&gt;&lt;div&gt;&lt;span style=&quot;font-size: 10.56pt&quot;&gt;&lt;font face=&quot;宋体&quot;&gt;选择键封装了特定的通道与特定的选择器的注册关系。选择键对象被&lt;/font&gt;&lt;/span&gt;&lt;span style=&quot;font-family: &amp;#34;couriernewpsmt&amp;#34; ; font-size: 10.56pt&quot;&gt;&lt;font face=&quot;CourierNewPSMT&quot;&gt;SelectableChannel.register( ) &lt;/font&gt;&lt;/span&gt;&lt;span style=&quot;font-size: 10.56pt&quot;&gt;&lt;font face=&quot;宋体&quot;&gt;返回并提供一个表示这种注册关系的标记。选择键包含了&lt;/font&gt;&lt;/span&gt;&lt;span style=&quot;font-size: 10.56pt&quot;&gt;&lt;font face=&quot;宋体&quot;&gt;两个比特集（以整数的形式进行编码），指示了该注册关系所关心的通道操作，以及通道已经准备&lt;/font&gt;&lt;/span&gt;&lt;span style=&quot;font-size: 10.56pt&quot;&gt;好的操作。&lt;/span&gt;&lt;/div&gt;" style="text;html=1;strokeColor=#666666;fillColor=#f5f5f5;spacing=5;spacingTop=-20;whiteSpace=wrap;overflow=hidden;rounded=0;fontSize=17;fontColor=#333333;" vertex="1" parent="1">
          <mxGeometry x="10" y="800" width="710" height="150" as="geometry"/>
        </mxCell>
      </root>
    </mxGraphModel>
  </diagram>
</mxfile>
